<?xml version="1.0" encoding="UTF-8" standalone="no"?>
<svg width="1024px" height="1024px" viewBox="0 0 1024 1024" version="1.1" xmlns="http://www.w3.org/2000/svg" xmlns:xlink="http://www.w3.org/1999/xlink" style="background: #1BA3FF;">
    <!-- Generator: Sketch 40.1 (33804) - http://www.bohemiancoding.com/sketch -->
    <title>logo-blue</title>
    <desc>Created with Sketch.</desc>
    <defs></defs>
    <g id="logo" stroke="none" stroke-width="1" fill="none" fill-rule="evenodd">
        <g id="logo-blue">
            <g id="logo" transform="translate(166.000000, 97.000000)">
                <path d="M692.637392,480.925125 C692.637392,672.0098 537.584871,826.915467 346.318696,826.915467 C155.052521,826.915467 0,672.0098 0,480.925125 C0,289.840104 155.052521,134.934438 346.318696,134.934438 C537.584871,134.934438 692.637392,289.840104 692.637392,480.925125" id="Fill-1" fill="#FFFFFF"></path>
                <path d="M346.349851,687.367958 C172.772513,685.009375 39.6769959,570.775438 4.07085563,537.004813 C29.6019744,702.932188 173.120405,830 346.349851,830 C519.449486,830 662.879645,703.120667 688.566537,537.374854 C652.870394,572.307479 519.826802,689.726542 346.349851,687.367958" id="Fill-2" fill="#CCCCCC"></path>
                <path d="M215.095911,482.925125 C215.095911,506.810104 195.714346,526.173312 171.807242,526.173312 C147.897889,526.173312 128.516324,506.810104 128.516324,482.925125 C128.516324,459.040146 147.897889,439.676937 171.807242,439.676937 C195.714346,439.676937 215.095911,459.040146 215.095911,482.925125" id="Fill-3" fill="#1BA3FF"></path>
                <path d="M564.121588,482.925125 C564.121588,506.810104 544.740023,526.173312 520.8324,526.173312 C496.923046,526.173312 477.541481,506.810104 477.541481,482.925125 C477.541481,459.040146 496.923046,439.676937 520.8324,439.676937 C544.740023,439.676937 564.121588,459.040146 564.121588,482.925125" id="Fill-4" fill="#1BA3FF"></path>
                <path d="M360.153028,105.944313 C365.637952,107.037146 368.602823,94.1462083 383.897955,75.6735208 C418.356571,34.0542083 459.2209,31.9498125 457.882987,20.4629583 C456.339108,7.21927083 399.148087,-14.7411458 366.236811,14.3849375 C333.007067,43.7911458 348.901059,103.703313 360.153028,105.944313" id="Fill-5" fill="#FFFFFF"></path>
            </g>
        </g>
    </g>
</svg>