<?xml version="1.0" encoding="UTF-8" standalone="no"?>
<svg width="624px" height="279px" viewBox="0 0 624 279" version="1.1" xmlns="http://www.w3.org/2000/svg" xmlns:xlink="http://www.w3.org/1999/xlink">
    <!-- Generator: Sketch 40.1 (33804) - http://www.bohemiancoding.com/sketch -->
    <title>AI</title>
    <desc>Created with Sketch.</desc>
    <defs></defs>
    <g id="Desktop" stroke="none" stroke-width="1" fill="none" fill-rule="evenodd">
        <g id="ai" transform="translate(-383.000000, -365.000000)">
            <g id="AI" transform="translate(383.000000, 365.000000)">
                <g id="quote" transform="translate(177.000000, 0.000000)">
                    <path d="M0,8.00961941 C0,3.58602876 3.58176467,0 7.99599942,0 L439.004001,0 C443.420069,0 447,3.58872562 447,8.00961941 L447,84.9903806 C447,89.4139712 443.416639,93 438.993506,93 L81.9732839,93 L25.1639672,140.290512 L41.3648065,93 L8.00006125,93 C3.58174942,93 0,89.4112744 0,84.9903806 L0,8.00961941 Z" id="Rectangle-144" fill="#FF5792"></path>
                    <text id="I-can-do-your-homewo" font-family="ProximaNovaSoft-Semibold, Proxima Nova Soft" font-size="36" font-weight="500" fill="#FFFFFF">
                        <tspan x="28" y="56">I can do your homework.</tspan>
                    </text>
                </g>
                <g id="robot" transform="translate(0.000000, 23.000000)">
                    <ellipse id="Oval-1" fill="#626262" cx="62.2802698" cy="239.972" rx="57.6422058" ry="15.972"></ellipse>
                    <g id="body" transform="translate(23.375308, 156.691563)">
                        <path d="M39.0880283,87.7803304 L18.3298958,87.7803304 C8.54993487,87.7803304 0.446401433,80.0133971 0.0738619916,70.1525971 C-0.313621725,59.8805971 3.76776668,47.5808637 7.97618143,32.7964371 C10.0859929,25.3825704 12.4989597,19.3761704 15.0224074,14.5841704 C19.749602,5.6065704 29.0123842,0.00550373444 39.0880283,0.00550373444 C49.1636724,0.00550373444 58.4264546,5.6065704 63.1536492,14.5841704 C65.6770969,19.3761704 68.0900637,25.3825704 70.1998752,32.7964371 C74.4082899,47.5808637 78.4896783,59.8805971 78.1021946,70.1525971 C77.7296552,80.0133971 69.6261217,87.7803304 59.8461608,87.7803304 L39.0880283,87.7803304 Z" id="Fill-3" fill="#FFFFFF"></path>
                        <path d="M59.8461608,79.9055037 L39.0880283,79.9055037 L18.329789,79.9055037 C8.54982812,79.9055037 0.446294688,75.6084371 0.0742889709,70.1529704 C0.446294688,80.0132371 8.54982812,87.7801704 18.329789,87.7801704 L59.8461608,87.7801704 C69.6261217,87.7801704 77.7301889,80.0132371 78.1021946,70.1529704 C77.7301889,75.6084371 69.6261217,79.9055037 59.8461608,79.9055037" id="Fill-7" fill="#CCCCCC"></path>
                        <path d="M54.3825514,27.8417704 C52.8881053,27.8417704 50.5634113,28.6345632 49.5671138,30.854383 C48.4047668,28.6345632 46.2461224,27.8417704 44.7516763,27.8417704 C42.2609327,27.8417704 39.6041395,29.5859145 39.6041395,33.39132 C39.6041395,36.245374 41.2646352,39.0994281 44.4195771,41.9534821 C46.7442711,44.0147434 49.0689651,45.4417704 49.2350147,45.4417704 L49.5671138,45.4417704 L49.899213,45.4417704 C50.0652626,45.4417704 52.3899566,44.0147434 54.7146506,41.9534821 C58.035642,39.0994281 59.5300881,36.0868154 59.5300881,33.39132 C59.5300881,29.5859145 56.873295,27.8417704 54.3825514,27.8417704 L54.3825514,27.8417704 L54.3825514,27.8417704 Z" id="coeur_4_-path" fill="#1BA3FF"></path>
                    </g>
                    <g id="head">
                        <path d="M124.926672,87.1205333 C124.926672,121.593067 96.9611286,149.538133 62.4633359,149.538133 C27.9660769,149.538133 0,121.593067 0,87.1205333 C0,52.6485333 27.9660769,24.7029333 62.4633359,24.7029333 C96.9611286,24.7029333 124.926672,52.6485333 124.926672,87.1205333" id="Fill-2" fill="#FFFFFF"></path>
                        <path d="M62.4692068,124.002667 C31.1617501,123.577067 7.15590625,102.969067 0.734137538,96.8768 C5.33910931,126.810667 31.2247295,149.733867 62.4692068,149.733867 C93.6899334,149.733867 119.559542,126.8448 124.192801,96.9434667 C117.754487,103.245333 93.7582501,124.428267 62.4692068,124.002667" id="Fill-4" fill="#CCCCCC"></path>
                        <path d="M38.7956063,87.1205333 C38.7956063,91.4293333 35.2997132,94.9226667 30.987756,94.9226667 C26.6752651,94.9226667 23.1799057,91.4293333 23.1799057,87.1205333 C23.1799057,82.8117333 26.6752651,79.3184 30.987756,79.3184 C35.2997132,79.3184 38.7956063,82.8117333 38.7956063,87.1205333" id="Fill-5" fill="#1BA3FF"></path>
                        <path d="M101.747033,87.1205333 C101.747033,91.4293333 98.2511398,94.9226667 93.9391826,94.9226667 C89.6266916,94.9226667 86.1313323,91.4293333 86.1313323,87.1205333 C86.1313323,82.8117333 89.6266916,79.3184 93.9391826,79.3184 C98.2511398,79.3184 101.747033,82.8117333 101.747033,87.1205333" id="Fill-6" fill="#1BA3FF"></path>
                        <path d="M64.9584962,19.1125333 C65.947487,19.3093333 66.4822785,16.984 69.2410986,13.6517333 C75.456316,6.14346667 82.8265125,5.76373333 82.5852692,3.6912 C82.3071989,1.3024 71.9919127,-2.6592 66.055833,2.5952 C60.0626447,7.90026667 62.9287433,18.7082667 64.9584962,19.1125333" id="Fill-9" fill="#FFFFFF"></path>
                    </g>
                </g>
            </g>
        </g>
    </g>
</svg>