<?xml version="1.0" encoding="UTF-8" standalone="no"?>
<svg width="400px" height="819px" viewBox="0 0 400 819" version="1.1" xmlns="http://www.w3.org/2000/svg" xmlns:xlink="http://www.w3.org/1999/xlink">
    <!-- Generator: Sketch 40.1 (33804) - http://www.bohemiancoding.com/sketch -->
    <title>mascot</title>
    <desc>Created with Sketch.</desc>
    <defs></defs>
    <g id="logo" stroke="none" stroke-width="1" fill="none" fill-rule="evenodd">
        <g id="mascot">
            <g id="robot">
                <ellipse id="Oval-1" fill="#626262" cx="199.296863" cy="767.722922" rx="184.455059" ry="51.0979219"></ellipse>
                <g id="body" transform="translate(74.800984, 501.290586)">
                    <path d="M125.081691,280.828479 L58.6556665,280.828479 C27.3597916,280.828479 1.42848459,255.98036 0.236358373,224.433504 C-1.00358952,191.571129 12.0568534,152.221591 25.5237806,104.922976 C32.2751773,81.2043952 39.996671,61.9886077 48.0717036,46.6579514 C63.1987263,17.9366452 92.8396295,0.0176076504 125.081691,0.0176076504 C157.323752,0.0176076504 186.964655,17.9366452 202.091678,46.6579514 C210.16671,61.9886077 217.888204,81.2043952 224.639601,104.922976 C238.106528,152.221591 251.166971,191.571129 249.927023,224.433504 C248.734897,255.98036 222.80359,280.828479 191.507715,280.828479 L125.081691,280.828479 Z" id="Fill-3" fill="#FFFFFF"></path>
                    <path d="M191.507715,255.635186 L125.081691,255.635186 L58.6553249,255.635186 C27.35945,255.635186 1.428143,241.88793 0.237724707,224.434698 C1.428143,255.979848 27.35945,280.827967 58.6553249,280.827967 L191.507715,280.827967 C222.80359,280.827967 248.736604,255.979848 249.927023,224.434698 C248.736604,241.88793 222.80359,255.635186 191.507715,255.635186" id="Fill-7" fill="#CCCCCC"></path>
                    <path d="M174.024165,89.0719139 C169.241937,89.0719139 161.802916,91.6082315 158.614764,98.7099207 C154.895254,91.6082315 147.987592,89.0719139 143.205364,89.0719139 C135.234985,89.0719139 126.733246,94.6518125 126.733246,106.826137 C126.733246,115.95688 132.046833,125.087623 142.142647,134.218367 C149.581668,140.812792 157.020688,145.378164 157.552047,145.378164 L158.614764,145.378164 L159.677482,145.378164 C160.20884,145.378164 167.647861,140.812792 175.086882,134.218367 C185.714054,125.087623 190.496282,115.449617 190.496282,106.826137 C190.496282,94.6518125 181.994544,89.0719139 174.024165,89.0719139 L174.024165,89.0719139 L174.024165,89.0719139 Z" id="coeur_4_-path" fill="#1BA3FF"></path>
                </g>
                <g id="head">
                    <path d="M399.76535,278.717644 C399.76535,389.002819 310.275612,478.4052 199.882675,478.4052 C89.4914459,478.4052 0,389.002819 0,278.717644 C0,168.434175 89.4914459,79.0300875 199.882675,79.0300875 C310.275612,79.0300875 399.76535,168.434175 399.76535,278.717644" id="Fill-2" fill="#FFFFFF"></path>
                    <path d="M199.901462,396.711656 C99.7176002,395.350069 22.8989,329.420569 2.34924012,309.930075 C17.0851498,405.695063 99.9191345,479.031394 199.901462,479.031394 C299.807787,479.031394 382.590534,405.804263 397.416963,310.143356 C376.814358,330.304406 300.0264,398.073244 199.901462,396.711656" id="Fill-4" fill="#CCCCCC"></path>
                    <path d="M124.14594,278.717644 C124.14594,292.502438 112.959082,303.678375 99.1608192,303.678375 C85.3608482,303.678375 74.1756984,292.502438 74.1756984,278.717644 C74.1756984,264.93285 85.3608482,253.756912 99.1608192,253.756912 C112.959082,253.756912 124.14594,264.93285 124.14594,278.717644" id="Fill-5" fill="#1BA3FF"></path>
                    <path d="M325.590505,278.717644 C325.590505,292.502438 314.403647,303.678375 300.605384,303.678375 C286.805413,303.678375 275.620263,292.502438 275.620263,278.717644 C275.620263,264.93285 286.805413,253.756912 300.605384,253.756912 C314.403647,253.756912 325.590505,264.93285 325.590505,278.717644" id="Fill-6" fill="#1BA3FF"></path>
                    <path d="M207.867188,61.145175 C211.031958,61.7747812 212.743291,54.3355312 221.571515,43.6748812 C241.460211,19.6542937 265.04484,18.4394437 264.272861,11.8089562 C263.383037,4.1666625 230.374121,-8.5073625 211.378666,8.3026125 C192.200463,25.2746812 201.371979,59.8518375 207.867188,61.145175" id="Fill-9" fill="#FFFFFF"></path>
                </g>
            </g>
        </g>
    </g>
</svg>