<?xml version="1.0" encoding="UTF-8" standalone="no"?>
<svg width="458px" height="460px" viewBox="0 0 458 460" version="1.1" xmlns="http://www.w3.org/2000/svg" xmlns:xlink="http://www.w3.org/1999/xlink">
    <!-- Generator: Sketch 40.1 (33804) - http://www.bohemiancoding.com/sketch -->
    <title>astronaut-woman</title>
    <desc>Created with Sketch.</desc>
    <defs></defs>
    <g id="Page-1" stroke="none" stroke-width="1" fill="none" fill-rule="evenodd">
        <g id="astronaut-woman" fill="#FF5792">
            <g id="Capa_1">
                <g id="Group">
                    <path d="M368.019,243.196 L384.643,226.572 C391.351,219.863 391.351,208.947 384.643,202.239 L322.423,140.018 L333.055,138.168 C349.291,135.039 359.965,119.325 356.846,103.123 C356.832,103.054 343.386,33.857 343.386,33.857 C341.87,25.987 337.402,19.18 330.804,14.689 C324.194,10.189 316.221,8.545 308.358,10.061 C292.069,13.199 281.361,28.962 284.489,45.208 L292.208,84.93 L271.069,88.664 L222.033,39.628 C216.315,33.911 207.55,33.085 200.929,37.112 C199.925,36.028 198.903,34.953 197.85,33.9 C175.988,12.04 146.922,0 116.005,0 C85.088,0 56.022,12.04 34.16,33.901 C12.299,55.762 0.26,84.829 0.26,115.746 C0.26,146.663 12.3,175.729 34.161,197.591 C35.261,198.691 36.384,199.76 37.52,200.809 C33.919,207.397 34.987,215.781 40.434,221.228 L87.989,268.783 L83.619,293.52 L43.89,285.8 C36.026,284.286 28.032,285.943 21.386,290.467 C14.753,294.983 10.266,301.802 8.751,309.669 C7.236,317.533 8.88,325.505 13.379,332.116 C17.87,338.714 24.677,343.182 32.539,344.696 L101.729,358.141 C103.724,358.526 105.611,358.702 107.475,358.702 C121.52,358.701 134.094,348.702 136.856,334.367 C136.864,334.326 139.192,319.986 139.192,319.986 L203.044,383.837 C206.293,387.087 210.614,388.877 215.21,388.877 C219.806,388.877 224.127,387.087 227.376,383.838 L240.935,370.279 L318.114,447.458 C326.338,455.682 337.14,459.793 347.943,459.793 C358.746,459.792 369.551,455.68 377.775,447.456 C394.222,431.009 394.222,404.246 377.775,387.797 L313.234,323.257 L320.996,315.494 L385.536,380.034 C401.984,396.482 428.748,396.482 445.196,380.033 C461.646,363.586 461.646,336.823 445.198,320.375 L368.019,243.196 Z M378.632,208.25 C382.027,211.644 382.027,217.167 378.632,220.562 L362.008,237.185 L273.377,148.554 L312.183,141.801 L378.632,208.25 L378.632,208.25 Z M209.867,43.09 C212.192,43.09 214.379,43.995 216.023,45.64 L260.853,90.47 L229.997,95.92 C226.78,77.267 218.981,59.261 206.61,43.721 C207.631,43.309 208.732,43.09 209.867,43.09 L209.867,43.09 Z M191.839,191.58 C171.583,211.836 144.651,222.992 116.005,222.992 C112.033,222.992 108.096,222.77 104.203,222.346 L123.29,185.935 C125.492,186.332 127.763,186.533 130.081,186.533 C142.627,186.533 156.492,180.76 167.507,169.745 C180.508,156.744 186.205,139.777 183.729,125.689 L222.632,104.741 C225.804,135.745 215.543,167.875 191.839,191.58 L191.839,191.58 Z M47.157,83 C49.044,82.364 50.176,80.531 50.022,78.632 L50.034,78.618 C49.439,71.525 50.768,67.06 54.621,63.206 C55.919,61.907 58.87,59.683 60.578,58.714 C60.618,58.692 60.659,58.668 60.698,58.644 C60.924,58.506 83.599,44.81 111.988,39.981 C147.912,33.873 176.294,44.087 196.411,70.345 C190.834,75.544 178.616,87.672 170.653,101.017 C169.369,95.383 167.253,89.888 164.291,84.714 C168.535,81.754 172.6,78.506 176.394,74.906 C178.097,73.29 178.167,70.6 176.552,68.898 C174.937,67.195 172.246,67.126 170.544,68.74 C128.428,108.702 48.469,104.557 47.663,104.512 C45.333,104.377 43.31,106.164 43.174,108.508 C43.038,110.851 44.825,112.861 47.168,112.998 C47.62,113.024 49.427,113.121 52.319,113.171 C51.957,129.501 58.207,145.234 69.849,156.876 C77.839,164.866 87.69,170.309 98.421,172.83 C86.637,179.944 76.133,190.387 71.515,195.287 C29.946,167.617 35.169,100.467 35.228,99.779 C35.238,99.668 35.243,99.556 35.244,99.445 C35.28,94.823 37.11,90.467 40.398,87.18 C42.296,85.279 44.571,83.873 47.157,83 L47.157,83 Z M112.243,165.938 C98.498,165.938 85.576,160.585 75.857,150.866 C65.817,140.826 60.446,127.24 60.814,113.15 C82.066,112.713 123.889,109.107 157.141,89.334 C168.282,109.205 164.96,134.535 148.629,150.866 C138.91,160.585 125.988,165.938 112.243,165.938 L112.243,165.938 Z M117.57,174.194 C131.574,172.968 144.581,166.936 154.64,156.877 C164.641,146.876 170.455,133.977 171.838,120.626 C171.861,120.525 171.897,120.429 171.912,120.324 C171.993,119.794 172.101,119.257 172.218,118.719 C179.708,130.659 175.494,149.738 161.497,163.734 C147.459,177.773 128.311,181.972 116.376,174.391 C116.777,174.316 117.176,174.246 117.57,174.194 L117.57,174.194 Z M8.76,115.746 C8.76,87.1 19.915,60.168 40.172,39.912 C60.427,19.655 87.359,8.5 116.005,8.5 C144.651,8.5 171.583,19.655 191.839,39.912 C207.693,55.765 217.529,75.388 221.362,95.923 C221.039,96.007 220.72,96.118 220.413,96.283 L181.145,117.427 C179.779,114.493 177.961,111.794 175.68,109.41 C184.464,92.001 204.649,74.341 204.895,74.127 C206.547,72.693 206.842,70.239 205.576,68.456 C183.562,37.443 150.623,24.717 110.315,31.645 C80.828,36.715 57.943,50.372 56.323,51.357 C54.197,52.574 50.617,55.19 48.61,57.197 C42.456,63.351 41.287,70.281 41.4,76.193 C38.797,77.447 36.445,79.11 34.385,81.17 C29.548,86.006 26.838,92.409 26.743,99.215 C26.581,101.254 25.341,119.077 29.601,140.38 C35.555,170.153 49.558,192.301 70.095,204.429 C70.769,204.827 71.514,205.019 72.254,205.019 C73.448,205.019 74.625,204.517 75.457,203.565 C80.567,197.716 94.078,184.316 107.013,177.769 C109.4,180.088 112.112,181.936 115.061,183.326 L95.309,221.004 C74.549,216.967 55.458,206.867 40.171,191.58 C19.915,171.324 8.76,144.392 8.76,115.746 L8.76,115.746 Z M46.445,215.217 C44.139,212.911 43.378,209.564 44.257,206.581 C59.092,218.346 76.405,226.187 94.914,229.577 L89.793,258.565 L46.445,215.217 L46.445,215.217 Z M221.366,377.828 C219.722,379.472 217.536,380.377 215.211,380.377 C212.885,380.377 210.699,379.472 209.055,377.827 L140.871,309.643 L146.377,275.718 L234.925,364.267 L221.366,377.828 L221.366,377.828 Z M371.765,441.445 C358.631,454.58 337.259,454.581 324.125,441.447 L320.874,438.196 L345.778,410.528 C347.389,408.822 347.312,406.132 345.605,404.52 C343.898,402.909 341.209,402.986 339.597,404.693 L314.857,432.179 L309.164,426.486 C309.339,426.358 309.514,426.229 309.672,426.071 L356.85,378.893 L371.765,393.808 C384.899,406.942 384.899,428.313 371.765,441.445 L371.765,441.445 Z M297.944,92.549 C299.067,92.351 300.062,91.71 300.708,90.771 C301.353,89.832 301.594,88.672 301.377,87.554 L292.835,43.595 C290.594,31.959 298.279,20.66 309.966,18.409 C315.592,17.326 321.295,18.5 326.022,21.717 C330.749,24.935 333.952,29.818 335.041,35.472 L336.61,43.549 L303.86,47.188 C301.527,47.447 299.846,49.549 300.105,51.881 C300.347,54.055 302.187,55.662 304.324,55.662 C304.481,55.662 304.639,55.653 304.799,55.636 L338.238,51.921 L348.448,104.465 C348.459,104.545 348.473,104.624 348.49,104.704 C348.5,104.752 348.512,104.808 348.526,104.864 C350.681,116.406 343.043,127.586 331.523,129.807 L263.856,141.582 C261.543,141.984 259.995,144.185 260.398,146.497 C260.554,147.394 260.991,148.165 261.59,148.763 L261.579,148.774 L343.546,230.741 L303.663,270.624 C302.003,272.284 302.003,274.975 303.663,276.635 C304.493,277.465 305.581,277.88 306.668,277.88 C307.756,277.88 308.843,277.465 309.673,276.635 L349.556,236.752 L375.605,262.802 L353.238,286.494 C351.627,288.201 351.704,290.891 353.411,292.502 C354.232,293.277 355.281,293.662 356.328,293.662 C357.457,293.662 358.583,293.215 359.419,292.329 L381.618,268.815 L420.493,307.69 C420.372,307.787 420.245,307.872 420.133,307.983 L372.821,355.295 L324.003,306.478 C323.206,305.681 322.125,305.233 320.998,305.233 C319.871,305.233 318.79,305.681 317.993,306.478 L304.221,320.251 C302.561,321.911 302.561,324.602 304.221,326.262 L350.841,372.882 L303.663,420.06 C303.505,420.218 303.376,420.393 303.248,420.568 L224.24,341.56 L257.665,308.135 C259.325,306.475 259.325,303.784 257.665,302.124 C256.005,300.464 253.314,300.464 251.654,302.124 L218.229,335.548 L146.518,263.837 L146.511,263.844 C145.902,263.234 145.11,262.796 144.194,262.647 C141.882,262.273 139.694,263.844 139.318,266.162 L128.5,332.816 C126.244,344.358 115.113,351.96 103.556,349.836 C103.522,349.828 103.49,349.82 103.461,349.814 C103.357,349.791 103.253,349.772 103.148,349.757 L47.743,338.991 L50.558,310.835 C50.791,308.5 49.087,306.417 46.752,306.183 C44.406,305.951 42.334,307.654 42.1,309.989 L39.363,337.363 L34.154,336.351 C28.506,335.264 23.624,332.061 20.406,327.334 C17.189,322.607 16.014,316.905 17.098,311.278 C18.185,305.632 21.407,300.736 26.169,297.494 C30.932,294.252 36.654,293.063 42.276,294.145 L86.242,302.688 C87.362,302.905 88.52,302.665 89.459,302.019 C90.398,301.373 91.039,300.378 91.237,299.255 L103.328,230.8 C107.51,231.253 111.739,231.491 116.005,231.491 C146.921,231.491 175.988,219.451 197.85,197.59 C223.31,172.129 234.404,137.661 231.136,104.349 L297.944,92.549 L297.944,92.549 Z M439.187,374.024 C426.053,387.158 404.682,387.159 391.548,374.024 L378.831,361.307 L426.143,313.995 C426.255,313.883 426.34,313.756 426.437,313.635 L439.187,326.385 C452.321,339.52 452.321,360.89 439.187,374.024 L439.187,374.024 Z" id="Shape"></path>
                    <path d="M259.062,192.313 C255.911,189.163 251.722,187.427 247.266,187.427 C242.81,187.427 238.621,189.162 235.471,192.313 L190.055,237.729 C186.904,240.88 185.169,245.069 185.169,249.525 C185.169,253.981 186.904,258.17 190.055,261.32 L209.833,281.098 C212.984,284.248 217.173,285.984 221.628,285.984 C226.083,285.984 230.273,284.249 233.424,281.098 L278.84,235.681 C281.991,232.531 283.726,228.341 283.726,223.886 C283.726,219.43 281.991,215.241 278.84,212.091 L259.062,192.313 L259.062,192.313 Z M272.829,229.672 L227.413,275.089 C225.868,276.635 223.813,277.486 221.627,277.486 C219.442,277.486 217.387,276.635 215.842,275.089 L196.064,255.311 C194.519,253.766 193.668,251.711 193.668,249.526 C193.668,247.34 194.519,245.286 196.064,243.741 L241.48,198.325 C243.025,196.78 245.08,195.928 247.265,195.928 C249.451,195.928 251.505,196.779 253.05,198.325 L256.568,201.843 L234.237,225.496 C232.626,227.202 232.703,229.892 234.41,231.504 C235.231,232.279 236.28,232.664 237.327,232.664 C238.456,232.664 239.582,232.217 240.418,231.331 L262.581,207.856 L272.829,218.104 C274.374,219.649 275.225,221.704 275.225,223.889 C275.225,226.072 274.374,228.127 272.829,229.672 L272.829,229.672 Z" id="Shape"></path>
                </g>
            </g>
        </g>
    </g>
</svg>