<?xml version="1.0" encoding="UTF-8" standalone="no"?>
<svg width="1383px" height="914px" viewBox="0 0 1383 914" version="1.1" xmlns="http://www.w3.org/2000/svg" xmlns:xlink="http://www.w3.org/1999/xlink">
    <!-- Generator: Sketch 40.1 (33804) - http://www.bohemiancoding.com/sketch -->
    <title>slide-1</title>
    <desc>Created with Sketch.</desc>
    <defs>
        <path d="M1.15185639e-14,22.9996238 C1.15185639e-14,10.2972823 10.2996826,6.25277607e-13 22.9953167,6.25277607e-13 L393.67135,6.25277607e-13 C406.371313,6.25277607e-13 416.666667,10.3064433 416.666667,22.9996238 L416.666667,352.300376 C416.666667,365.002718 406.366984,375.3 393.67135,375.3 L22.9953167,375.3 C10.295354,375.3 1.15185639e-14,364.993557 1.15185639e-14,352.300376 L1.15185639e-14,22.9996238 Z M145.833333,357.925 C155.42161,357.925 163.194444,350.145948 163.194444,340.55 C163.194444,330.954052 155.42161,323.175 145.833333,323.175 C136.245056,323.175 128.472222,330.954052 128.472222,340.55 C128.472222,350.145948 136.245056,357.925 145.833333,357.925 Z M284.722222,357.925 C294.310499,357.925 302.083333,350.145948 302.083333,340.55 C302.083333,330.954052 294.310499,323.175 284.722222,323.175 C275.133945,323.175 267.361111,330.954052 267.361111,340.55 C267.361111,350.145948 275.133945,357.925 284.722222,357.925 Z M284.722222,48.65 C294.310499,48.65 302.083333,40.8709475 302.083333,31.275 C302.083333,21.6790525 294.310499,13.9 284.722222,13.9 C275.133945,13.9 267.361111,21.6790525 267.361111,31.275 C267.361111,40.8709475 275.133945,48.65 284.722222,48.65 Z M145.833333,48.65 C155.42161,48.65 163.194444,40.8709475 163.194444,31.275 C163.194444,21.6790525 155.42161,13.9 145.833333,13.9 C136.245056,13.9 128.472222,21.6790525 128.472222,31.275 C128.472222,40.8709475 136.245056,48.65 145.833333,48.65 Z" id="path-1"></path>
        <mask id="mask-2" maskContentUnits="userSpaceOnUse" maskUnits="objectBoundingBox" x="0" y="0" width="416.666667" height="375.3" fill="white">
            <use xlink:href="#path-1"></use>
        </mask>
        <path d="M969,173.645121 L969,284.500038 C969,322.05538 938.551047,352.5 901.006337,352.5 L67.993663,352.5 C30.4417999,352.5 0,322.055859 0,284.497321 L0,78.5026791 C0,40.9458365 30.4451255,10.5 68.0048781,10.5 L176.956802,10.5" id="path-3"></path>
        <mask id="mask-4" maskContentUnits="userSpaceOnUse" maskUnits="objectBoundingBox" x="0" y="0" width="969" height="342" fill="white">
            <use xlink:href="#path-3"></use>
        </mask>
        <path d="M828.5,106.799551 L828.5,155.87503 C828.5,185.491283 807.003363,209.5 780.507949,209.5 L47.9920508,209.5 C21.486773,209.5 1.13686838e-13,185.499563 1.13686838e-13,155.870804 L1.13686838e-13,63.1291963 L1.13686838e-13,63.1291963 C1.13686838e-13,33.510609 21.4950499,9.5 47.9964295,9.5 L118.31776,9.5" id="path-5"></path>
        <mask id="mask-6" maskContentUnits="userSpaceOnUse" maskUnits="objectBoundingBox" x="0" y="0" width="828.5" height="200" fill="white">
            <use xlink:href="#path-5"></use>
        </mask>
    </defs>
    <g id="product" stroke="none" stroke-width="1" fill="none" fill-rule="evenodd">
        <g id="slide-1">
            <g id="motor-driver" transform="translate(707.000000, 531.000000) rotate(-90.000000) translate(-707.000000, -531.000000) translate(518.500000, 322.000000)">
                <g id="board" transform="translate(188.150000, 208.666667) rotate(90.000000) translate(-188.150000, -208.666667) translate(-20.350000, 20.666667)">
                    <use id="Combined-Shape" stroke="#1F4A66" mask="url(#mask-2)" stroke-width="4" fill="#3882B2" xlink:href="#path-1"></use>
                    <rect id="Rectangle-3" fill="#55BF85" x="17.3611111" y="13.9" width="86.8055556" height="166.8" rx="21"></rect>
                    <ellipse id="Oval-4" fill="#C8C8C8" cx="62.5" cy="55.6" rx="24.3055556" ry="24.325"></ellipse>
                    <ellipse id="Oval-4" fill="#C8C8C8" cx="62.5" cy="135.525" rx="24.3055556" ry="24.325"></ellipse>
                    <rect id="Rectangle-3" fill="#55BF85" x="17.3611111" y="194.6" width="86.8055556" height="166.8" rx="21"></rect>
                    <ellipse id="Oval-4" fill="#C8C8C8" cx="62.5" cy="236.3" rx="24.3055556" ry="24.325"></ellipse>
                    <ellipse id="Oval-4" fill="#C8C8C8" cx="62.5" cy="316.225" rx="24.3055556" ry="24.325"></ellipse>
                    <ellipse id="Oval-4" fill="#DBDBDB" cx="376.736111" cy="39.9625" rx="26.0416667" ry="26.0625"></ellipse>
                    <ellipse id="Oval-4" fill="#DBDBDB" cx="376.736111" cy="158.1125" rx="26.0416667" ry="26.0625"></ellipse>
                    <path d="M376.736111,125.1 C391.118526,125.1 402.777778,113.431421 402.777778,99.0375 C402.777778,84.6435787 391.118526,72.975 376.736111,72.975 C362.353696,72.975 350.694444,84.6435787 350.694444,99.0375 C350.694444,113.431421 362.353696,125.1 376.736111,125.1 Z" id="Oval-4" fill="#DBDBDB"></path>
                    <ellipse id="Oval-4" fill="#DBDBDB" cx="376.736111" cy="217.1875" rx="26.0416667" ry="26.0625"></ellipse>
                    <ellipse id="Oval-4" fill="#DBDBDB" cx="376.736111" cy="276.2625" rx="26.0416667" ry="26.0625"></ellipse>
                    <ellipse id="Oval-4" fill="#DBDBDB" cx="376.736111" cy="335.3375" rx="26.0416667" ry="26.0625"></ellipse>
                </g>
            </g>
            <g id="right-motor" transform="translate(385.000000, 412.000000)">
                <rect id="Rectangle-601" fill="#FFDF4A" x="838" y="0.5" width="160" height="377" rx="51"></rect>
                <g id="vcc-wire" transform="translate(0.000000, 149.000000)">
                    <ellipse id="Oval-214" fill="#D46262" cx="960.5" cy="177" rx="18.5" ry="18.5"></ellipse>
                    <circle id="Oval-214" fill="#D46262" cx="175.5" cy="18.5" r="18.5"></circle>
                    <use id="Rectangle-602" stroke="#D46262" mask="url(#mask-4)" stroke-width="30" xlink:href="#path-3"></use>
                </g>
                <g id="gnd-wire" transform="translate(58.000000, 229.000000)">
                    <ellipse id="Oval-214" fill="#000000" cx="821.5" cy="97" rx="18.5" ry="18.5"></ellipse>
                    <circle id="Oval-214" fill="#000000" cx="117.5" cy="18.5" r="18.5"></circle>
                    <use id="Rectangle-602" stroke="#000000" mask="url(#mask-6)" stroke-width="32" xlink:href="#path-5"></use>
                </g>
            </g>
            <g id="left-motor">
                <rect id="Rectangle-601" fill="#FFDF4A" x="0" y="0" width="160" height="377" rx="51"></rect>
                <g id="vcc-wire" transform="translate(104.000000, 307.000000)">
                    <circle id="Oval-214" fill="#D46262" cx="18.5" cy="18.5" r="18.5"></circle>
                    <circle id="Oval-214" fill="#D46262" cx="456.5" cy="92.5" r="18.5"></circle>
                    <path d="M466.372981,92 L466.372981,92 L465.580845,92 L67.0039379,92 C40.4920951,92 19,70.5098981 19,44.0051326 L19,9.90100652" id="Combined-Shape" stroke="#D46262" stroke-width="15"></path>
                </g>
                <g id="gnd-wire" transform="translate(23.000000, 307.000000)">
                    <circle id="Oval-214" fill="#000000" cx="18.5" cy="18.5" r="18.5"></circle>
                    <circle id="Oval-214" fill="#000000" cx="537.5" cy="171.5" r="18.5"></circle>
                    <path d="M540.277676,171 L67.0028311,171 C40.4915995,171 19,149.509268 19,122.990457 L19,9.71206356" id="Combined-Shape" stroke="#000000" stroke-width="15"></path>
                </g>
            </g>
        </g>
    </g>
</svg>