<?xml version="1.0" encoding="UTF-8" standalone="no"?>
<svg width="474px" height="483px" viewBox="0 0 474 483" version="1.1" xmlns="http://www.w3.org/2000/svg" xmlns:xlink="http://www.w3.org/1999/xlink">
    <!-- Generator: Sketch 40.1 (33804) - http://www.bohemiancoding.com/sketch -->
    <title>blocks</title>
    <desc>Created with Sketch.</desc>
    <defs></defs>
    <g id="Desktop" stroke="none" stroke-width="1" fill="none" fill-rule="evenodd">
        <g id="learntocode" transform="translate(-869.000000, -57.000000)">
            <g id="blocks" transform="translate(869.000000, 57.000000)">
                <path d="M0.701778063,356.307665 L0.622049973,457.225511 C0.622049973,457.225511 0.622049967,460.469928 3.13214108,462.464273 C5.64223219,464.458618 7.35504239,464.405518 7.35504239,464.405518 L36.2654233,464.405518 L54.5522407,482.692335 L89.5028258,482.692335 L108.469833,463.725328 L443.746585,463.725328 C443.746585,463.725328 447.170742,464.072025 448.676693,462.464267 C450.182644,460.85651 450.5,457.259552 450.5,457.259552 L450.499996,362.436008 C450.499996,362.436008 449.946743,360.674385 448.05389,358.147342 C446.161037,355.6203 443.672946,356.573724 443.672946,356.573724 L216.009725,356.573724 C216.009725,356.573724 185.518525,356.573723 108.469836,356.573722 C31.4211465,356.573721 0.701778063,356.307665 0.701778063,356.307665 Z" id="Path-55-Copy-3" fill="#FF8C57"></path>
                <path d="M0.701778063,249.307665 L0.622049973,350.225511 C0.622049973,350.225511 0.622049967,353.469928 3.13214108,355.464273 C5.64223219,357.458618 7.35504239,357.405518 7.35504239,357.405518 L36.2654233,357.405518 L54.5522407,375.692335 L89.5028258,375.692335 L108.469833,356.725328 L339.746585,356.725328 C339.746585,356.725328 343.170742,357.072025 344.676693,355.464267 C346.182644,353.85651 346.5,350.259552 346.5,350.259552 L346.499996,255.436008 C346.499996,255.436008 345.946743,253.674385 344.05389,251.147342 C342.161037,248.6203 339.672946,249.573724 339.672946,249.573724 L216.009725,249.573724 C216.009725,249.573724 185.518525,249.573723 108.469836,249.573722 C31.4211465,249.573721 0.701778063,249.307665 0.701778063,249.307665 Z" id="Path-55-Copy-2" fill="#57B8FF"></path>
                <path d="M0.701778063,143.307665 L0.622049973,244.225511 C0.622049973,244.225511 0.622049967,247.469928 3.13214108,249.464273 C5.64223219,251.458618 7.35504239,251.405518 7.35504239,251.405518 L36.2654233,251.405518 L54.5522407,269.692335 L89.5028258,269.692335 L108.469833,250.725328 L466.746585,250.725328 C466.746585,250.725328 470.170742,251.072025 471.676693,249.464267 C473.182644,247.85651 473.5,244.259552 473.5,244.259552 L473.499996,149.436008 C473.499996,149.436008 472.946743,147.674385 471.05389,145.147342 C469.161037,142.6203 466.672946,143.573724 466.672946,143.573724 L216.009725,143.573724 C216.009725,143.573724 185.518525,143.573723 108.469836,143.573722 C31.4211465,143.573721 0.701778063,143.307665 0.701778063,143.307665 Z" id="Path-55-Copy" fill="#9B57FF"></path>
                <path d="M0.701778063,36.0966191 L0.622049973,137.014465 C0.622049973,137.014465 0.622049967,140.258883 3.13214108,142.253227 C5.64223219,144.247572 7.35504239,144.194472 7.35504239,144.194472 L36.2654233,144.194472 L54.5522407,162.481289 L89.5028258,162.481289 L108.469833,143.514282 L327.746585,143.514282 C327.746585,143.514282 331.170742,143.860979 332.676693,142.253222 C334.182644,140.645464 334.5,137.048506 334.5,137.048506 L334.499996,42.2249622 C334.499996,42.2249622 333.946743,40.4633389 332.05389,37.9362965 C330.161037,35.4092541 327.672946,36.362678 327.672946,36.362678 L216.009725,36.362678 C216.009725,36.362678 186.857911,0.307665852 109.809221,0.307664872 C32.7605321,0.307663893 0.701778063,36.0966191 0.701778063,36.0966191 Z" id="Path-55" fill="#FF5792"></path>
                <text id="when-eye-poked" font-family="ProximaNovaSoft-Semibold, Proxima Nova Soft" font-size="36" font-weight="500" fill="#FFFFFF">
                    <tspan x="34.62205" y="101.307665">when eye poked</tspan>
                </text>
                <text id="set-emotion" font-family="ProximaNovaSoft-Semibold, Proxima Nova Soft" font-size="36" font-weight="500" fill="#FFFFFF">
                    <tspan x="34.62205" y="211.307665">set emotion</tspan>
                </text>
                <text id="set-color" font-family="ProximaNovaSoft-Semibold, Proxima Nova Soft" font-size="36" font-weight="500" fill="#FFFFFF">
                    <tspan x="34.62205" y="326.307665">set color</tspan>
                </text>
                <text id="say" font-family="ProximaNovaSoft-Semibold, Proxima Nova Soft" font-size="36" font-weight="500" fill="#FFFFFF">
                    <tspan x="34.62205" y="428.307665">say</tspan>
                </text>
                <rect id="Rectangle-61" fill="#B383FB" x="268.62205" y="162.307665" width="173" height="68" rx="8"></rect>
                <rect id="Rectangle-61-Copy-2" fill="#FDAC87" x="142.62205" y="377.307665" width="267" height="68" rx="8"></rect>
                <rect id="Rectangle-61-Copy" fill="#FF5353" x="209.62205" y="269.307665" width="92" height="68" rx="8"></rect>
                <text id="grrrrrrrrrrrrrrrr" font-family="ProximaNovaSoft-Semibold, Proxima Nova Soft" font-size="36" font-weight="500" fill="#FFFFFF">
                    <tspan x="177.62205" y="420.307665">grrrrrrrrrrrrrr</tspan>
                </text>
                <text id="angry" font-family="ProximaNovaSoft-Semibold, Proxima Nova Soft" font-size="36" font-weight="500" fill="#FFFFFF">
                    <tspan x="309.62205" y="205.307665">angry</tspan>
                </text>
            </g>
        </g>
    </g>
</svg>