<?xml version="1.0" encoding="UTF-8" standalone="no"?>
<svg width="152px" height="211px" viewBox="0 0 152 211" version="1.1" xmlns="http://www.w3.org/2000/svg" xmlns:xlink="http://www.w3.org/1999/xlink">
    <!-- Generator: Sketch 40.1 (33804) - http://www.bohemiancoding.com/sketch -->
    <title>Shape</title>
    <desc>Created with Sketch.</desc>
    <defs></defs>
    <g id="Desktop" stroke="none" stroke-width="1" fill="none" fill-rule="evenodd">
        <g id="plans" transform="translate(-866.000000, -818.000000)" fill="#FFFFFF">
            <g id="module-3" transform="translate(421.000000, 818.000000)">
                <path d="M566.59214,30.1428571 C549.929054,30.1428571 536.39214,43.6468571 536.39214,60.2857143 C536.39214,71.4053672 542.497023,81.023529 551.49214,86.2559051 L551.49214,90.4285714 C551.49214,90.4285714 551.49214,120.571429 521.29214,120.571429 C508.772824,120.571429 498.95924,123.25014 491.09214,127.356397 L491.09214,56.113048 C500.094571,50.8806719 506.19214,41.26251 506.19214,30.1428571 C506.19214,13.504 492.66254,0 475.99214,0 C459.32174,0 445.79214,13.504 445.79214,30.1428571 C445.79214,41.26251 451.889709,50.8806719 460.89214,56.113048 L460.89214,154.894252 C451.889709,160.119328 445.79214,169.73019 445.79214,180.857143 C445.79214,197.4887 459.32174,211 475.99214,211 C492.66254,211 506.19214,197.4887 506.19214,180.857143 C506.19214,172.968192 503.080596,165.844587 498.111281,160.457729 C502.505617,155.070871 509.65004,150.714286 521.29214,150.714286 C581.220265,150.714286 581.69214,90.4285714 581.69214,90.4285714 L581.69214,86.2559051 C590.687257,81.023529 596.79214,71.4053672 596.79214,60.2857143 C596.79214,43.6468571 583.255226,30.1428571 566.59214,30.1428571 L566.59214,30.1428571 Z M475.99214,15.0714286 C484.345743,15.0714286 491.09214,21.8050603 491.09214,30.1428571 C491.09214,38.480654 484.345743,45.2142857 475.99214,45.2142857 C467.638537,45.2142857 460.89214,38.480654 460.89214,30.1428571 C460.89214,21.8050603 467.638537,15.0714286 475.99214,15.0714286 L475.99214,15.0714286 Z M475.99214,195.928571 C467.638537,195.928571 460.89214,189.18764 460.89214,180.857143 C460.89214,172.541482 467.638537,165.785714 475.99214,165.785714 C484.345743,165.785714 491.09214,172.541482 491.09214,180.857143 C491.09214,189.18764 484.345743,195.928571 475.99214,195.928571 L475.99214,195.928571 Z M566.59214,75.3571429 C558.245851,75.3571429 551.49214,68.6235112 551.49214,60.2857143 C551.49214,51.9479174 558.245851,45.2142857 566.59214,45.2142857 C574.938429,45.2142857 581.69214,51.9479174 581.69214,60.2857143 C581.69214,68.6235112 574.938429,75.3571429 566.59214,75.3571429 L566.59214,75.3571429 Z" id="Shape"></path>
            </g>
        </g>
    </g>
</svg>